<svg width="16" height="16" viewBox="0 0 16 16" fill="none" xmlns="http://www.w3.org/2000/svg">
<g id="question">
<path id="vector" d="M15 8C15 11.8656 11.8656 15 8 15C4.13437 15 1 11.8656 1 8C1 4.13437 4.13437 1 8 1C11.8656 1 15 4.13437 15 8ZM14 8C14 4.6875 11.3125 2 8 2C4.6875 2 2 4.6875 2 8C2 11.3125 4.6875 14 8 14C11.3125 14 14 11.3125 14 8ZM11 6C11 7.4125 10.2687 8.05937 9.73125 8.53125C9.25937 8.94688 9 9.17813 9 10H7C7 8.275 7.84688 7.525 8.40938 7.03125C8.84062 6.65312 9 6.50938 9 6C9 5.45 8.55 5 8 5C7.45 5 7 5.45 7 6H5C5 4.34375 6.34375 3 8 3C9.65625 3 11 4.34375 11 6ZM9 13V11H7V13H9Z" fill="white"/>
</g>
</svg>
